<svg width="1964" height="387" viewBox="0 0 1964 387" fill="none" xmlns="http://www.w3.org/2000/svg">
<path d="M816.2 140L878.6 0H910.6L973.2 140H939.2L888 16.4H900.8L849.4 140H816.2ZM847.4 110L856 85.4H928L936.8 110H847.4Z" fill="white"/>
<path d="M1047.73 140V0H1080.13V113.6H1150.33V140H1047.73Z" fill="white"/>
<path d="M1228.43 140V0H1289.03C1301.56 0 1312.36 2.06667 1321.43 6.2C1330.49 10.2 1337.5 16 1342.43 23.6C1347.36 31.2 1349.83 40.2667 1349.83 50.8C1349.83 61.2 1347.36 70.2 1342.43 77.8C1337.5 85.4 1330.49 91.2667 1321.43 95.4C1312.36 99.4 1301.56 101.4 1289.03 101.4H1246.43L1260.83 86.8V140H1228.43ZM1260.83 90.4L1246.43 75H1287.23C1297.23 75 1304.69 72.8667 1309.63 68.6C1314.56 64.3333 1317.03 58.4 1317.03 50.8C1317.03 43.0667 1314.56 37.0667 1309.63 32.8C1304.69 28.5333 1297.23 26.4 1287.23 26.4H1246.43L1260.83 11V90.4Z" fill="white"/>
<path d="M1432.96 140V0H1465.36V140H1432.96Z" fill="white"/>
<path d="M1558.58 140V0H1585.38L1667.98 100.8H1654.98V0H1686.98V140H1660.38L1577.58 39.2H1590.58V140H1558.58Z" fill="white"/>
<path d="M1809.91 56.4H1877.31V81.6H1809.91V56.4ZM1812.31 114H1888.51V140H1780.11V0H1885.91V26H1812.31V114Z" fill="white"/>
<path d="M834.6 384V244H895.2C907.734 244 918.534 246.067 927.6 250.2C936.667 254.2 943.667 260 948.6 267.6C953.534 275.2 956 284.267 956 294.8C956 305.2 953.534 314.2 948.6 321.8C943.667 329.267 936.667 335 927.6 339C918.534 343 907.734 345 895.2 345H852.6L867 330.8V384H834.6ZM923.6 384L888.6 333.2H923.2L958.6 384H923.6ZM867 334.4L852.6 319.2H893.4C903.4 319.2 910.867 317.067 915.8 312.8C920.734 308.4 923.2 302.4 923.2 294.8C923.2 287.067 920.734 281.067 915.8 276.8C910.867 272.533 903.4 270.4 893.4 270.4H852.6L867 255V334.4Z" fill="white"/>
<path d="M1071.47 300.4H1138.87V325.6H1071.47V300.4ZM1073.87 358H1150.07V384H1041.67V244H1147.47V270H1073.87V358Z" fill="white"/>
<path d="M1281.85 386.4C1270.65 386.4 1259.92 384.933 1249.65 382C1239.38 378.933 1231.12 375 1224.85 370.2L1235.85 345.8C1241.85 350.067 1248.92 353.6 1257.05 356.4C1265.32 359.067 1273.65 360.4 1282.05 360.4C1288.45 360.4 1293.58 359.8 1297.45 358.6C1301.45 357.267 1304.38 355.467 1306.25 353.2C1308.12 350.933 1309.05 348.333 1309.05 345.4C1309.05 341.667 1307.58 338.733 1304.65 336.6C1301.72 334.333 1297.85 332.533 1293.05 331.2C1288.25 329.733 1282.92 328.4 1277.05 327.2C1271.32 325.867 1265.52 324.267 1259.65 322.4C1253.92 320.533 1248.65 318.133 1243.85 315.2C1239.05 312.267 1235.12 308.4 1232.05 303.6C1229.12 298.8 1227.65 292.667 1227.65 285.2C1227.65 277.2 1229.78 269.933 1234.05 263.4C1238.45 256.733 1244.98 251.467 1253.65 247.6C1262.45 243.6 1273.45 241.6 1286.65 241.6C1295.45 241.6 1304.12 242.667 1312.65 244.8C1321.18 246.8 1328.72 249.867 1335.25 254L1325.25 278.6C1318.72 274.867 1312.18 272.133 1305.65 270.4C1299.12 268.533 1292.72 267.6 1286.45 267.6C1280.18 267.6 1275.05 268.333 1271.05 269.8C1267.05 271.267 1264.18 273.2 1262.45 275.6C1260.72 277.867 1259.85 280.533 1259.85 283.6C1259.85 287.2 1261.32 290.133 1264.25 292.4C1267.18 294.533 1271.05 296.267 1275.85 297.6C1280.65 298.933 1285.92 300.267 1291.65 301.6C1297.52 302.933 1303.32 304.467 1309.05 306.2C1314.92 307.933 1320.25 310.267 1325.05 313.2C1329.85 316.133 1333.72 320 1336.65 324.8C1339.72 329.6 1341.25 335.667 1341.25 343C1341.25 350.867 1339.05 358.067 1334.65 364.6C1330.25 371.133 1323.65 376.4 1314.85 380.4C1306.18 384.4 1295.18 386.4 1281.85 386.4Z" fill="white"/>
<path d="M1491.39 386.4C1480.32 386.4 1470.06 384.6 1460.59 381C1451.26 377.4 1443.12 372.333 1436.19 365.8C1429.39 359.267 1424.06 351.6 1420.19 342.8C1416.46 334 1414.59 324.4 1414.59 314C1414.59 303.6 1416.46 294 1420.19 285.2C1424.06 276.4 1429.46 268.733 1436.39 262.2C1443.32 255.667 1451.46 250.6 1460.79 247C1470.12 243.4 1480.26 241.6 1491.19 241.6C1502.26 241.6 1512.39 243.4 1521.59 247C1530.92 250.6 1538.99 255.667 1545.79 262.2C1552.72 268.733 1558.12 276.4 1561.99 285.2C1565.86 293.867 1567.79 303.467 1567.79 314C1567.79 324.4 1565.86 334.067 1561.99 343C1558.12 351.8 1552.72 359.467 1545.79 366C1538.99 372.4 1530.92 377.4 1521.59 381C1512.39 384.6 1502.32 386.4 1491.39 386.4ZM1491.19 358.8C1497.46 358.8 1503.19 357.733 1508.39 355.6C1513.72 353.467 1518.39 350.4 1522.39 346.4C1526.39 342.4 1529.46 337.667 1531.59 332.2C1533.86 326.733 1534.99 320.667 1534.99 314C1534.99 307.333 1533.86 301.267 1531.59 295.8C1529.46 290.333 1526.39 285.6 1522.39 281.6C1518.52 277.6 1513.92 274.533 1508.59 272.4C1503.26 270.267 1497.46 269.2 1491.19 269.2C1484.92 269.2 1479.12 270.267 1473.79 272.4C1468.59 274.533 1463.99 277.6 1459.99 281.6C1455.99 285.6 1452.86 290.333 1450.59 295.8C1448.46 301.267 1447.39 307.333 1447.39 314C1447.39 320.533 1448.46 326.6 1450.59 332.2C1452.86 337.667 1455.92 342.4 1459.79 346.4C1463.79 350.4 1468.46 353.467 1473.79 355.6C1479.12 357.733 1484.92 358.8 1491.19 358.8Z" fill="white"/>
<path d="M1652.14 384V244H1712.74C1725.27 244 1736.07 246.067 1745.14 250.2C1754.21 254.2 1761.21 260 1766.14 267.6C1771.07 275.2 1773.54 284.267 1773.54 294.8C1773.54 305.2 1771.07 314.2 1766.14 321.8C1761.21 329.267 1754.21 335 1745.14 339C1736.07 343 1725.27 345 1712.74 345H1670.14L1684.54 330.8V384H1652.14ZM1741.14 384L1706.14 333.2H1740.74L1776.14 384H1741.14ZM1684.54 334.4L1670.14 319.2H1710.94C1720.94 319.2 1728.41 317.067 1733.34 312.8C1738.27 308.4 1740.74 302.4 1740.74 294.8C1740.74 287.067 1738.27 281.067 1733.34 276.8C1728.41 272.533 1720.94 270.4 1710.94 270.4H1670.14L1684.54 255V334.4Z" fill="white"/>
<path d="M1886.26 384V270.4H1841.46V244H1963.46V270.4H1918.66V384H1886.26Z" fill="white"/>
<path d="M716.351 282.856C679.594 253.404 649.215 193.14 648.912 192.53C647.271 189.234 643.893 187.15 640.217 187.15H612.69C592.129 168.852 562.669 130.317 534.149 93.0065C510.075 61.5168 487.277 31.6994 470.616 15.1297C469.649 11.333 466.529 8.59157 462.798 7.97467C456.055 2.43122 450.729 0 445.621 0C429.019 0 418.027 12.5234 413.877 20.3681C402.316 37.4802 377.025 59.5206 366.472 68.3738L356.568 63.4126C351.75 60.9952 345.919 62.9447 343.513 67.7725C338.689 77.4454 297.392 128.742 267.54 164.902C244.323 132.065 220.716 124.768 204.323 124.768C185.066 124.768 164.999 160.42 156.978 176.389C96.3976 267.182 4.80799 336.572 3.8895 337.261C1.04408 339.4 -0.40717 342.921 0.099643 346.447C0.599537 349.974 2.98485 352.932 6.3094 354.191C18.978 358.943 31.4442 361.36 43.35 361.36C78.6886 361.36 100.087 340.673 107.892 331.415H129.797C170.344 377.417 223.98 385.574 226.298 385.898C226.758 385.972 227.216 386 227.676 386C246.359 386 256.879 381.437 261.994 378.202H313.296C316.426 378.202 319.364 376.693 321.189 374.154C323.021 371.615 323.521 368.346 322.526 365.368C313.399 337.927 281.391 335.537 275.324 335.327C255.985 331.834 240.952 316.983 230.553 302.484C245.748 307.913 257.966 308.021 258.81 308.021C262.741 308.021 266.296 305.645 267.796 302.003C269.302 298.367 268.472 294.17 265.687 291.382C210.24 235.835 199.599 186.483 198.49 180.525C198.578 176.091 199.369 172.464 200.483 169.532C243.95 280.612 410.788 358.312 418.207 361.724C419.483 362.3 420.869 362.605 422.268 362.605H539.026C543.938 362.605 548.086 358.936 548.681 354.048C549.29 349.161 546.154 344.591 541.383 343.399C517.694 337.462 474.416 303.469 459.734 290.865C455.882 287.556 450.119 287.779 446.524 291.38C431.726 306.205 422.024 309.319 416.505 309.319C408.295 309.319 403.492 301.873 401.484 297.785C408.551 273.781 408.647 244.96 408.647 243.686C408.647 239.165 405.545 235.239 401.153 234.195C400.965 234.156 400.768 234.114 400.572 234.081C413.208 218.364 423.424 203.052 430.08 192.439C455.633 224.368 510.884 237.006 513.56 237.608C518.155 238.588 522.79 236.24 524.627 231.915C526.459 227.604 524.971 222.587 521.073 219.981C487.229 197.379 458.735 102.518 448.754 60.5499C454.12 56.1086 458.193 51.3033 461.281 46.5847C489.659 108.765 565.856 203.964 600.748 246.007C605.823 253.162 611.538 259.944 617.768 266.172C619.661 268.075 622.153 269.028 624.648 269.028H624.796C630.181 269.028 634.526 264.661 634.526 259.28C634.526 256.302 633.208 253.649 631.106 251.855C629.121 249.526 623.918 243.428 616.559 234.561C645.214 260.298 697.843 294.108 705.046 298.698C709.405 301.467 715.18 300.363 718.181 296.139C721.196 291.928 720.378 286.093 716.351 282.856Z" fill="white"/>
</svg>
